<svg xmlns="http://www.w3.org/2000/svg" width="22.01" height="27.663" viewBox="0 0 22.01 27.663">
    <path id="icons8-paper_bag" d="M29.877,7.787,29.708,5.5a4.855,4.855,0,0,0-9.684,0l-.169,2.284H17.423a1.929,1.929,0,0,0-1.9,1.776L14.378,25.612h0a1.89,1.89,0,0,0,.507,1.438,1.938,1.938,0,0,0,1.4.613h17.19a1.859,1.859,0,0,0,1.4-.613,1.89,1.89,0,0,0,.507-1.438l-1.142-15.9a2.054,2.054,0,0,0-2.051-1.9h-2.3Zm-8.584-2.2a3.583,3.583,0,0,1,7.147,0l.148,2.2H21.123ZM32.964,9.8l1.142,15.9a.629.629,0,0,1-.169.486.679.679,0,0,1-.465.211H16.281a.651.651,0,0,1-.634-.7h0L16.789,9.648a.628.628,0,0,1,.634-.592H19.77l-.127,1.692a.625.625,0,0,0,.592.677h.042a.628.628,0,0,0,.634-.592l.127-1.776h7.654l.127,1.776a.636.636,0,1,0,1.269-.085l-.127-1.692h2.22A.8.8,0,0,1,32.964,9.8Z" transform="translate(-13.871 -0.5)" fill="#616870" stroke="#616870" stroke-width="1"/>
</svg>
