<svg xmlns="http://www.w3.org/2000/svg" width="26.379" height="33.916" viewBox="0 0 26.379 33.916">
  <g id="Icon_feather-bookmark" data-name="Icon feather-bookmark" transform="translate(-7.5 -4.5)" fill="none" stroke-linecap="round" stroke-linejoin="round">
    <path d="M33.879,38.416,20.69,28.995,7.5,38.416V8.268A3.768,3.768,0,0,1,11.268,4.5H30.111a3.768,3.768,0,0,1,3.768,3.768Z" stroke="none"/>
    <path d="M 30.8790397644043 32.58633422851562 L 30.8790397644043 8.268434524536133 C 30.8790397644043 7.844724655151367 30.53432083129883 7.500004768371582 30.11059951782227 7.500004768371582 L 11.26842975616455 7.500004768371582 C 10.84471988677979 7.500004768371582 10.5 7.844724655151367 10.5 8.268434524536133 L 10.5 32.58633422851562 L 18.94581031799316 26.55361557006836 C 19.46735572814941 26.18107986450195 20.07843780517578 25.99481201171875 20.68951988220215 25.99481201171875 C 21.30060195922852 25.99481201171875 21.91168403625488 26.18107986450195 22.43322944641113 26.55361557006836 L 30.8790397644043 32.58633422851562 M 33.8790397644043 38.4158935546875 L 20.68951988220215 28.99481391906738 L 7.5 38.4158935546875 L 7.5 8.268434524536133 C 7.5 6.187184810638428 9.187190055847168 4.500004768371582 11.26842975616455 4.500004768371582 L 30.11059951782227 4.500004768371582 C 32.19184875488281 4.500004768371582 33.8790397644043 6.187184810638428 33.8790397644043 8.268434524536133 L 33.8790397644043 38.4158935546875 Z" stroke="none" fill="#616870"/>
  </g>
</svg>
