<?xml version="1.0"?>
<svg xmlns="http://www.w3.org/2000/svg" xmlns:xlink="http://www.w3.org/1999/xlink" xmlns:svgjs="http://svgjs.com/svgjs" version="1.1" width="512" height="512" x="0" y="0" viewBox="0 0 512 512" style="enable-background:new 0 0 512 512" xml:space="preserve"><g><g xmlns="http://www.w3.org/2000/svg"><path d="m482.284 482h-39.573v-467c0-8.284-6.716-15-15-15h-343.423c-8.284 0-15 6.716-15 15v467h-39.572c-8.284 0-15 6.716-15 15s6.716 15 15 15h452.569c8.284 0 15-6.716 15-15s-6.716-15-15.001-15zm-277.415 0v-102.261h102.261v102.261zm132.261 0v-117.261c0-8.284-6.716-15-15-15h-132.261c-8.284 0-15 6.716-15 15v117.261h-75.581v-452h313.423v452z" fill="#45ae9e" data-original="#000000" style=""/><path d="m223.748 66.309h-73.508c-8.284 0-15 6.716-15 15v73.508c0 8.284 6.716 15 15 15h73.508c8.284 0 15-6.716 15-15v-73.508c0-8.284-6.716-15-15-15zm-15 73.508h-43.508v-43.508h43.508z" fill="#45ae9e" data-original="#000000" style=""/><path d="m361.76 66.309h-73.508c-8.284 0-15 6.716-15 15v73.508c0 8.284 6.716 15 15 15h73.508c8.284 0 15-6.716 15-15v-73.508c0-8.284-6.716-15-15-15zm-15 73.508h-43.508v-43.508h43.508z" fill="#45ae9e" data-original="#000000" style=""/><path d="m223.748 205.954h-73.508c-8.284 0-15 6.716-15 15v73.508c0 8.284 6.716 15 15 15h73.508c8.284 0 15-6.716 15-15v-73.508c0-8.284-6.716-15-15-15zm-15 73.508h-43.508v-43.508h43.508z" fill="#45ae9e" data-original="#000000" style=""/><path d="m361.76 205.954h-73.508c-8.284 0-15 6.716-15 15v73.508c0 8.284 6.716 15 15 15h73.508c8.284 0 15-6.716 15-15v-73.508c0-8.284-6.716-15-15-15zm-15 73.508h-43.508v-43.508h43.508z" fill="#45ae9e" data-original="#000000" style=""/></g></g></svg>
