<svg xmlns="http://www.w3.org/2000/svg" width="33.605" height="23.804" viewBox="0 0 33.605 23.804">
  <path id="icons8-car" d="M17.8,8c-4.619,0-6.306.6-6.629.744-1.086.369-2.694.922-3.391,2.275-.473.922-3.585,9.211-3.938,10.152L3.8,21.3v8.4a2.1,2.1,0,0,0,2.1,2.1H8.7a2.1,2.1,0,0,0,2.1-2.1V29h14v.7a2.1,2.1,0,0,0,2.1,2.1h2.8a2.1,2.1,0,0,0,2.1-2.1V21.3l-.044-.131c-.074-.2-1.069-2.8-2.057-5.338a.615.615,0,0,1-.022-.066c-.82-2.111-1.624-4.16-1.882-4.748-.588-1.332-2.207-1.936-3.391-2.275C24.046,8.593,22.34,8,17.8,8Zm0,1.4c4.586,0,6.055.632,6.06.634l.109.044c.528.15,2.141.607,2.538,1.51.235.533.96,2.4,1.728,4.376l.066.131c.011.027.008.055.022.088.019.049.046.1.066.153a1.854,1.854,0,0,1,.088,1.531c-.282.416-1.083.634-2.275.634H9.4a2.922,2.922,0,0,1-2.319-.7c-.328-.487.027-1.356.2-1.772l.066-.131c.812-2.119,1.51-3.883,1.685-4.223.446-.864,1.753-1.324,2.625-1.619l.066-.022C11.734,10.029,13.216,9.4,17.8,9.4ZM3.866,15.7C1.749,15.7,1,17,1,18.217c0,.591.265,1.542,1.838,1.663.44-1.168,1.006-2.688,1.575-4.179Zm27.282,0c.634,1.638,1.261,3.249,1.619,4.179,1.578-.118,1.838-1.069,1.838-1.663,0-1.214-.749-2.516-2.866-2.516ZM8,21.3h2.8a2.1,2.1,0,1,1,0,4.2c-1.173,0-1.521-.3-2.735-.985-.812-.459-1.466-.9-1.466-1.816A1.4,1.4,0,0,1,8,21.3Zm16.8,0h2.8A1.4,1.4,0,0,1,29,22.7c0,.916-.654,1.356-1.466,1.816-1.212.686-1.562.985-2.735.985a2.1,2.1,0,0,1,0-4.2Z" transform="translate(-1 -8)" fill="#fff"/>
</svg>
