<svg id="Group_119" data-name="Group 119" xmlns="http://www.w3.org/2000/svg" width="35.893" height="35.866" viewBox="0 0 35.893 35.866">
  <path id="Path_31" data-name="Path 31" d="M211.486,188.716c0-.486.006-.972.006-1.458s0-1,0-1.5c0-1.127,0-2.253,0-3.38a3.006,3.006,0,0,0-3.005-3.036c-3.252-.012-6.562-.012-9.839,0a3,3,0,0,0-3,3.045q0,4.864,0,9.727a2.454,2.454,0,0,0,.021.378,3.035,3.035,0,0,0,3.113,2.681q1.874,0,3.746,0c1.909,0,3.883,0,5.824.007h.019a3.1,3.1,0,0,0,3.134-3.167C211.473,190.918,211.48,189.8,211.486,188.716Z" transform="translate(-195.641 -179.337)" fill="#fa784a"/>
  <path id="Path_32" data-name="Path 32" d="M211.487,305.984c0-.488.005-.976.005-1.464v-4.967a3,3,0,0,0-2.964-2.945c-3.148-.008-6.358-.008-9.817,0a3.019,3.019,0,0,0-3.067,3.1q0,4.428,0,8.856v.738a3.042,3.042,0,0,0,3.137,3.147q1.852,0,3.7,0c1.923,0,3.912,0,5.868.006h.016A3.092,3.092,0,0,0,211.5,309.3C211.476,308.2,211.482,307.073,211.487,305.984Z" transform="translate(-195.642 -278.827)" fill="#fa784a"/>
  <path id="Path_33" data-name="Path 33" d="M316.088,195.218c.457,0,.918,0,1.376,0h3.967q2.181,0,4.363,0a3.039,3.039,0,0,0,3.094-3.1c0-3.309,0-6.551,0-9.638a3.03,3.03,0,0,0-3.093-3.1q-4.841,0-9.682,0a2.936,2.936,0,0,0-.444.024,3.011,3.011,0,0,0-2.634,3.059q0,1.673,0,3.347v2.542q0,1.853,0,3.705a3.675,3.675,0,0,0,.04.625A3.039,3.039,0,0,0,316.088,195.218Z" transform="translate(-295.237 -179.375)" fill="#fa784a"/>
  <path id="Path_34" data-name="Path 34" d="M330.774,312.525c-.324-.341-.664-.677-.993-1l-.409-.4-1.844-1.837a7.911,7.911,0,0,0,1.431-5.824,8,8,0,1,0-3.213,7.6.55.55,0,0,0,.056.066q.668.67,1.338,1.338.9.9,1.794,1.795a1.286,1.286,0,0,0,.929.418,1.384,1.384,0,0,0,.329-.041,1.227,1.227,0,0,0,.9-.853A1.284,1.284,0,0,0,330.774,312.525Zm-4.264-7.949a5.471,5.471,0,0,1-5.468,5.464h-.005a5.464,5.464,0,1,1,3.873-9.33A5.427,5.427,0,0,1,326.509,304.576Z" transform="translate(-295.247 -278.81)" fill="#fa784a"/>
</svg>
