<svg xmlns="http://www.w3.org/2000/svg" width="21.423" height="23.804" viewBox="0 0 21.423 23.804">
  <path id="icons8-task_completed" d="M22.043,3.38h-4.98a3.55,3.55,0,0,0-6.7,0H5.38A2.38,2.38,0,0,0,3,5.761V22.423A2.38,2.38,0,0,0,5.38,24.8H22.043a2.38,2.38,0,0,0,2.38-2.38V5.761A2.38,2.38,0,0,0,22.043,3.38ZM9.792,13.251l2.729,2.729,5.109-5.109a1.191,1.191,0,0,1,1.683,0h0a1.191,1.191,0,0,1,0,1.683L13.363,18.5a1.191,1.191,0,0,1-1.683,0L8.109,14.934a1.191,1.191,0,0,1,0-1.683h0A1.189,1.189,0,0,1,9.792,13.251Zm3.919-9.87a1.19,1.19,0,1,1-1.19,1.19A1.191,1.191,0,0,1,13.712,3.38Z" transform="translate(-3 -1)" fill="#fff"/>
</svg>
