<svg xmlns="http://www.w3.org/2000/svg" width="34.159" height="36.836" viewBox="0 0 34.159 36.836">
  <path id="icons8-home" d="M34.995,37.755h-7.79a2.163,2.163,0,0,1-2.164-2.164V27.8a1.731,1.731,0,0,0-1.731-1.731H19.848A1.731,1.731,0,0,0,18.117,27.8v7.79a2.163,2.163,0,0,1-2.164,2.164H8.164A2.163,2.163,0,0,1,6,35.591V19.071a6.493,6.493,0,0,1,2.475-5.1l12.3-9.693a1.3,1.3,0,0,1,1.607,0l12.3,9.693a6.49,6.49,0,0,1,2.474,5.1V35.591A2.163,2.163,0,0,1,34.995,37.755Z" transform="translate(-4.5 -2.419)" fill="#fa784a" stroke="#fa784a" stroke-width="3"/>
</svg>
