<svg xmlns="http://www.w3.org/2000/svg" width="21.687" height="21.687" viewBox="0 0 21.687 21.687">
  <path id="icons8-key" d="M12.419,5a7.432,7.432,0,0,1,7.419,7.419,7.086,7.086,0,0,1-.2,1.442l6.8,6.8a.856.856,0,0,1,.251.605v4.566a.856.856,0,0,1-.856.856H21.265a.856.856,0,0,1-.856-.856V24.4h-2a.856.856,0,0,1-.856-.856v-2h-2a.856.856,0,0,1-.856-.856V19.436a7.322,7.322,0,0,1-2.283.4A7.419,7.419,0,1,1,12.419,5Zm0,1.712a5.707,5.707,0,1,0,2.729,10.721.856.856,0,0,1,1.266.751v1.654h2a.856.856,0,0,1,.856.856v2h2a.856.856,0,0,1,.856.856v1.427h2.854V21.619l-6.842-6.842a.856.856,0,0,1-.22-.835,5.689,5.689,0,0,0-5.494-7.231ZM11.278,9.566a1.712,1.712,0,1,1-1.712,1.712A1.712,1.712,0,0,1,11.278,9.566Z" transform="translate(-5 -5)" fill="#45ae9e"/>
</svg>
