<svg xmlns="http://www.w3.org/2000/svg" width="22.484" height="23.608" viewBox="0 0 22.484 23.608">
  <path id="icons8-data_pending" d="M7.81,4a.571.571,0,0,0-.4.158L5.334,6.248h8.1a.563.563,0,0,1,.562.562,2.248,2.248,0,1,0,4.5,0,.562.562,0,0,1,.562-.562h8.1l-2.073-2.09a.571.571,0,0,0-.4-.158ZM5,7.373V27.046a.562.562,0,0,0,.562.562H26.921a.56.56,0,0,0,.562-.562V7.373H19.562a3.366,3.366,0,0,1-6.64,0Zm11.242,5.621a5.059,5.059,0,1,1-5.059,5.059A5.057,5.057,0,0,1,16.242,12.993ZM15.68,14.68v3.091l-2.02,1.511.667.913,2.248-1.686.228-.176V14.68Z" transform="translate(-5 -4)" fill="#fff"/>
</svg>
