<svg xmlns="http://www.w3.org/2000/svg" width="24" height="29.998" viewBox="0 0 24 29.998">
  <path id="icons8-user" d="M20,4a7.5,7.5,0,1,0,7.5,7.5A7.517,7.517,0,0,0,20,4Zm0,2.25a5.25,5.25,0,1,1-5.25,5.25A5.233,5.233,0,0,1,20,6.25ZM10.984,22A3,3,0,0,0,8,24.983v1.141a6.989,6.989,0,0,0,3.98,6.047A16.88,16.88,0,0,0,20,34a16.88,16.88,0,0,0,8.02-1.828,7.249,7.249,0,0,0,3.8-4.922H32V24.983A3,3,0,0,0,29.015,22Zm0,2.25H29.015a.719.719,0,0,1,.735.734V25h0v1.125c0,1.8-1.009,3.081-2.817,4.078A14.95,14.95,0,0,1,20,31.748,14.95,14.95,0,0,1,13.067,30.2c-1.807-1-2.817-2.281-2.817-4.078V24.983A.717.717,0,0,1,10.984,24.249Z" transform="translate(-8 -4)" fill="#45ae9e"/>
</svg>
