<svg xmlns="http://www.w3.org/2000/svg" width="27" height="28" viewBox="0 0 27 28">
  <path id="icons8-smart_home_checked" d="M15,2a1,1,0,0,0-.7.285L3.393,11.207l-.037.029-.037.031v0A1,1,0,0,0,4,13H5V24a2,2,0,0,0,2,2h7.523A8.979,8.979,0,0,1,25,14.23V13h1a1,1,0,0,0,.682-1.732l-.016-.012q-.033-.03-.068-.057L15.678,2.268A1,1,0,0,0,15,2Zm8,14a7,7,0,1,0,7,7A7,7,0,0,0,23,16Zm3,4a1,1,0,0,1,.707,1.707l-4,4a1,1,0,0,1-1.414,0l-2-2a1,1,0,0,1,1.414-1.414L22,23.586l3.293-3.293A1,1,0,0,1,26,20Z" transform="translate(-3 -2)" fill="#fff"/>
</svg>
