<svg xmlns="http://www.w3.org/2000/svg" width="23.43" height="26.777" viewBox="0 0 23.43 26.777">
    <path id="Icon_awesome-trash-alt" data-name="Icon awesome-trash-alt" d="M1.674,24.267a2.51,2.51,0,0,0,2.51,2.51H19.246a2.51,2.51,0,0,0,2.51-2.51V6.694H1.674ZM15.9,10.878a.837.837,0,0,1,1.674,0V22.593a.837.837,0,1,1-1.674,0Zm-5.021,0a.837.837,0,0,1,1.674,0V22.593a.837.837,0,1,1-1.674,0Zm-5.021,0a.837.837,0,0,1,1.674,0V22.593a.837.837,0,0,1-1.674,0Zm16.736-9.2H16.317L15.826.7A1.255,1.255,0,0,0,14.7,0H8.724A1.241,1.241,0,0,0,7.6.7l-.492.978H.837A.837.837,0,0,0,0,2.51V4.184a.837.837,0,0,0,.837.837H22.593a.837.837,0,0,0,.837-.837V2.51A.837.837,0,0,0,22.593,1.674Z" fill="#fff"/>
</svg>
